#N canvas 595 252 450 300 10;
#X declare -path bin64 -path bin;
#X obj 226 186 print;
#X obj 200 109 udp2table;
#X obj 38 17 declare -path bin64 -path bin;
#X obj 38 68 unpackOSC;
#X obj 38 46 udpreceive 3265;
#X obj 38 90 route /arrays;
#X obj 38 112 list length;
#X floatatom 38 134 5 0 0 0 - - -;
#X obj 77 174 / 32;
#X floatatom 77 196 5 0 0 0 - - -;
#X connect 3 0 5 0;
#X connect 4 0 3 0;
#X connect 5 0 6 0;
#X connect 6 0 7 0;
#X connect 7 0 8 0;
#X connect 8 0 9 0;
