#N canvas 1067 123 712 749 10;
#X declare -path bin;
#X obj 38 188 unpackOSC;
#X obj 38 46 udpreceive 3265;
#X obj 57 254 list length;
#X obj 38 715 tabwrite;
#X obj 38 375 list split 1;
#X obj 106 443 list;
#X obj 38 397 t b a;
#X obj 65 477 t a b b;
#X obj 104 506 f;
#X obj 131 507 + 1;
#X obj 104 526 sel;
#X msg 76 548 0;
#X obj 104 548 t b b;
#X obj 38 232 t a a b;
#X obj 202 420 t b;
#X msg 202 442 0;
#X obj 38 210 route /arrayXYB;
#X obj 57 276 / 3;
#X obj 131 584 f;
#X obj 156 584 + 1;
#X obj 131 606 sel 0 1 2;
#X floatatom 272 348 5 0 0 0 - - -;
#X obj 38 17 declare -path bin;
#X msg 141 317 \; drawX resize \$1 \; drawY resize \$1 \; drawR resize
\$1;
#X msg 165 628 set drawR;
#X msg 148 648 set drawY;
#X msg 131 668 set drawX;
#X obj 226 140 table drawX 10000;
#X obj 226 160 table drawY 10000;
#X obj 226 180 table drawR 10000;
#X obj 226 200 table drawG 10000;
#X obj 226 220 table drawB 10000;
#X obj 70 102 realtime;
#X floatatom 70 124 10 0 0 0 - - -;
#X obj 38 68 t b a b;
#X obj 479 494 netsend;
#X obj 515 366 loadbang;
#X obj 515 430 metro 1000;
#X msg 515 452 connect localhost 3000;
#X obj 515 410 tgl 15 0 empty empty empty 17 7 0 10 -262144 -1 -1 0
1;
#X msg 515 388 1;
#X obj 479 516 == 0;
#X msg 407 432 send size \$1;
#X obj 407 408 f;
#X obj 404 646 shmem 1 10000;
#X obj 534 646 shmem 2 10000;
#X obj 407 369 t b b;
#X msg 286 622 memset 0 drawX;
#X msg 404 622 memset 0 drawY;
#X obj 408 578 t b;
#X obj 398 309 bng 15 250 50 0 empty empty empty 17 7 0 10 -262144
-1 -1;
#X msg 534 622 memset 0 drawR;
#X floatatom 331 353 5 0 0 0 - - -;
#X msg 286 682 memdump 0 drawY;
#X obj 286 646 shmem 1213 100;
#X obj 286 706 shmem 1213 100;
#N canvas 422 191 1203 888 dsp 0;
#X obj 200 263 +~;
#X obj 200 191 *~ 1;
#X obj 329 30 r \$0-invert_x;
#X obj 314 10 r \$0-scale_x;
#X obj 199 61 phasor~;
#X obj 199 83 *~ 32;
#X obj 251 40 r \$0-size;
#X obj 251 60 - 1;
#X obj 329 52 t b f;
#X obj 314 85 f 1;
#X obj 215 243 r \$0-offset_x;
#X obj 199 2 r \$0-scan_freq;
#X floatatom 313 160 5 0 0 0 - - -;
#X floatatom 425 69 5 0 0 0 - - -;
#X obj 314 124 * 1;
#X obj 560 272 +~;
#X obj 560 200 *~ 1;
#X obj 559 70 phasor~;
#X obj 559 92 *~ 32;
#X obj 611 49 r \$0-size;
#X obj 611 69 - 1;
#X obj 689 61 t b f;
#X obj 674 94 f 1;
#X obj 559 11 r \$0-scan_freq;
#X floatatom 673 169 5 0 0 0 - - -;
#X floatatom 785 78 5 0 0 0 - - -;
#X obj 674 133 * 1;
#X obj 199 297 dac~ 3;
#X obj 559 306 dac~ 4;
#X obj 575 251 r \$0-offset_y;
#X obj 674 19 r \$0-scale_y;
#X obj 689 39 r \$0-invert_y;
#X obj 557 770 *~ 1;
#X obj 556 497 *~ 32;
#X obj 745 419 r \$0-size;
#X obj 745 439 - 1;
#X obj 556 371 r \$0-scan_freq;
#X obj 753 601 sel 0;
#X msg 753 623 -1;
#X obj 711 614 f 1;
#X floatatom 738 689 5 0 0 0 - - -;
#X obj 738 663 * 1;
#X obj 711 539 r \$0-intensity;
#X obj 726 559 r \$0-invert_blanking;
#X obj 556 865 dac~ 5;
#X obj 557 684 *~ 1;
#X obj 578 561 t f f;
#X obj 578 583 == 0;
#X obj 590 684 *~;
#X obj 578 539 r \$0-blanking_off;
#X obj 590 634 sig~ 1;
#X obj 356 72 sel 0 1;
#X msg 356 94 1;
#X msg 385 94 -1;
#X msg 716 103 1;
#X msg 745 103 -1;
#X obj 716 81 sel 0 1;
#X obj 620 603 tgl 15 0 empty empty empty 17 7 0 10 -262144 -1 -1 0
1;
#X obj 537 612 tgl 15 0 empty empty empty 17 7 0 10 -262144 -1 -1 0
1;
#X obj 557 812 +~ 0;
#X obj 726 581 t b f f;
#X obj 558 475 wrap~;
#X obj 558 453 +~ 1;
#X obj 682 373 r \$0-blank_delay;
#X obj 682 394 /;
#X obj 745 459 t b f;
#X obj 556 430 phasor~;
#X obj 682 416 + 100;
#X msg 160 462 \; pd dsp 1;
#X obj 160 413 loadbang;
#X obj 160 435 del 1000;
#X obj 200 119 tabread4~ drawX;
#X obj 560 128 tabread4~ drawY;
#X obj 557 518 tabread4~ drawR;
#X connect 0 0 27 0;
#X connect 1 0 0 0;
#X connect 2 0 8 0;
#X connect 3 0 9 0;
#X connect 3 0 13 0;
#X connect 4 0 5 0;
#X connect 5 0 71 0;
#X connect 6 0 7 0;
#X connect 7 0 5 1;
#X connect 8 0 9 0;
#X connect 8 1 51 0;
#X connect 9 0 14 0;
#X connect 10 0 0 1;
#X connect 11 0 4 0;
#X connect 14 0 1 1;
#X connect 14 0 12 0;
#X connect 15 0 28 0;
#X connect 16 0 15 0;
#X connect 17 0 18 0;
#X connect 18 0 72 0;
#X connect 19 0 20 0;
#X connect 20 0 18 1;
#X connect 21 0 22 0;
#X connect 21 1 56 0;
#X connect 22 0 26 0;
#X connect 23 0 17 0;
#X connect 26 0 16 1;
#X connect 26 0 24 0;
#X connect 29 0 15 1;
#X connect 30 0 22 0;
#X connect 30 0 25 0;
#X connect 31 0 21 0;
#X connect 32 0 59 0;
#X connect 33 0 73 0;
#X connect 34 0 35 0;
#X connect 35 0 33 1;
#X connect 35 0 65 0;
#X connect 36 0 66 0;
#X connect 37 0 38 0;
#X connect 37 1 41 1;
#X connect 38 0 41 1;
#X connect 39 0 41 0;
#X connect 41 0 40 0;
#X connect 41 0 32 1;
#X connect 42 0 39 0;
#X connect 43 0 60 0;
#X connect 45 0 32 0;
#X connect 46 0 47 0;
#X connect 46 1 48 1;
#X connect 46 1 57 0;
#X connect 47 0 45 1;
#X connect 47 0 58 0;
#X connect 48 0 32 0;
#X connect 49 0 46 0;
#X connect 50 0 48 0;
#X connect 51 0 52 0;
#X connect 51 1 53 0;
#X connect 52 0 14 1;
#X connect 53 0 14 1;
#X connect 54 0 26 1;
#X connect 55 0 26 1;
#X connect 56 0 54 0;
#X connect 56 1 55 0;
#X connect 59 0 44 0;
#X connect 60 0 39 0;
#X connect 60 1 37 0;
#X connect 60 2 59 1;
#X connect 61 0 33 0;
#X connect 62 0 61 0;
#X connect 63 0 64 0;
#X connect 64 0 67 0;
#X connect 65 0 64 0;
#X connect 65 1 64 1;
#X connect 66 0 62 0;
#X connect 67 0 62 1;
#X connect 69 0 70 0;
#X connect 70 0 68 0;
#X connect 71 0 1 0;
#X connect 72 0 16 0;
#X connect 73 0 45 0;
#X restore 447 105 pd dsp;
#X obj 447 85 dac~ 1 2;
#X obj 447 41 osc~ 220;
#X obj 447 63 *~ 0.2;
#X connect 0 0 16 0;
#X connect 1 0 34 0;
#X connect 2 0 17 0;
#X connect 2 0 21 0;
#X connect 4 0 6 0;
#X connect 4 1 5 1;
#X connect 5 0 4 0;
#X connect 6 0 5 0;
#X connect 6 1 7 0;
#X connect 7 0 3 0;
#X connect 7 2 8 0;
#X connect 8 0 9 0;
#X connect 8 0 10 0;
#X connect 9 0 8 1;
#X connect 10 0 12 0;
#X connect 10 1 3 1;
#X connect 11 0 8 0;
#X connect 12 0 11 0;
#X connect 12 1 18 0;
#X connect 13 0 4 0;
#X connect 13 1 2 0;
#X connect 13 2 14 0;
#X connect 14 0 15 0;
#X connect 15 0 8 1;
#X connect 15 0 18 0;
#X connect 16 0 13 0;
#X connect 17 0 10 1;
#X connect 17 0 43 1;
#X connect 18 0 19 0;
#X connect 18 0 20 0;
#X connect 19 0 18 1;
#X connect 20 0 26 0;
#X connect 20 1 25 0;
#X connect 20 2 24 0;
#X connect 24 0 3 0;
#X connect 25 0 3 0;
#X connect 26 0 3 0;
#X connect 32 0 33 0;
#X connect 34 0 32 1;
#X connect 34 0 46 0;
#X connect 34 1 0 0;
#X connect 34 2 32 0;
#X connect 35 0 41 0;
#X connect 36 0 40 0;
#X connect 37 0 38 0;
#X connect 38 0 35 0;
#X connect 39 0 37 0;
#X connect 40 0 39 0;
#X connect 41 0 39 0;
#X connect 42 0 35 0;
#X connect 43 0 42 0;
#X connect 46 0 43 0;
#X connect 46 1 49 0;
#X connect 47 0 54 0;
#X connect 48 0 44 0;
#X connect 49 0 51 0;
#X connect 49 0 48 0;
#X connect 49 0 47 0;
#X connect 50 0 46 0;
#X connect 51 0 45 0;
#X connect 52 0 43 1;
#X connect 53 0 55 0;
#X connect 58 0 59 0;
#X connect 59 0 57 0;
#X connect 59 0 57 1;
