#N canvas 943 455 974 443 10;
#X declare -path ..;
#X msg 188 93 resize \$1;
#X obj 100 164 loadbang;
#X obj 60 78 t a b;
#X obj 60 -18 gemhead 1000;
#X obj 60 6 alpha 0;
#X msg 99 184 draw line;
#X obj 60 236 gemvertexbuffer;
#X floatatom 158 -11 5 0 0 0 - - -;
#X obj 60 33 scaleXYZ 3 3 1;
#X obj 264 -25 loadbang;
#X msg 171 183 draw point;
#X obj 169 25 r framesize;
#X obj 396 16 declare -path ..;
#X obj 516 216 ildafile;
#X obj 516 115 loadbang;
#N canvas 1 140 974 300 info 0;
#X obj 173 24 route frame_info file_info;
#X obj 391 58 unpack 0 0 0 0;
#X floatatom 391 95 5 0 0 3 3D_frame - -;
#X floatatom 462 92 5 0 0 3 2D_frame - -;
#X floatatom 535 91 5 0 0 3 color_lookup_table - -;
#X floatatom 674 91 5 0 0 3 true_color_frame - -;
#X text 414 37 number of frame in file;
#X obj 173 58 unpack s s 0 0 0 0 0;
#X symbolatom 173 106 10 0 0 0 compagny_name - -;
#X floatatom 173 126 5 0 0 0 format - -;
#X floatatom 173 146 5 0 0 0 number_of_points - -;
#X text 380 240 3: true color frame;
#X text 380 220 2: color lookup table;
#X text 380 200 1: 2D frame \,;
#X text 380 179 0: 3D frame \,;
#X text 346 159 frame format desciption :;
#X floatatom 173 166 5 0 0 0 frame_number - -;
#X floatatom 173 186 5 0 0 0 total_frame_number - -;
#X floatatom 173 206 5 0 0 0 scanner/projector - -;
#X symbolatom 173 82 10 0 0 0 name - -;
#X obj 173 -2 inlet;
#X obj 211 147 s framesize;
#X connect 0 0 7 0;
#X connect 0 1 1 0;
#X connect 1 0 2 0;
#X connect 1 1 3 0;
#X connect 1 2 4 0;
#X connect 1 3 5 0;
#X connect 7 0 19 0;
#X connect 7 1 8 0;
#X connect 7 2 9 0;
#X connect 7 3 10 0;
#X connect 7 4 16 0;
#X connect 7 5 17 0;
#X connect 7 6 18 0;
#X connect 10 0 21 0;
#X connect 20 0 0 0;
#X restore 516 247 pd info;
#X msg 87 114 posX drawX \, posY drawY \, colorR drawR \, colorG drawG
\, colorB drawB \, colorA intensity;
#X msg 535 162 settab x drawX y drawY r drawR g drawG b drawB i intensity
;
#X obj 516 137 t b b b;
#X obj 574 22 table drawR 10000;
#X obj 574 42 table drawG 10000;
#X obj 574 62 table drawB 10000;
#X obj 574 82 table intensity 10000;
#X obj 169 47 t b f;
#X obj 573 -18 table drawX 10000;
#X floatatom 188 75 5 0 0 0 - - -;
#X obj 574 2 table drawY 10000;
#X msg 516 185 read ../ildatest.ild \, 0;
#X obj 249 280 ildafile;
#X obj 60 375 pix_write;
#X msg 77 343 file ildatestpattern 90;
#X obj 83 271 bng 15 250 50 0 empty empty empty 17 7 0 10 -262144 -1
-1;
#X obj 60 313 pix_snap 0 0 1024 1024;
#X obj 265 16 gemwin;
#X msg 264 -4 dimen 256 256 \, create \, 1;
#X connect 0 0 6 0;
#X connect 1 0 5 0;
#X connect 2 0 6 0;
#X connect 3 0 4 0;
#X connect 4 0 8 0;
#X connect 5 0 6 0;
#X connect 6 0 32 0;
#X connect 7 0 8 1;
#X connect 7 0 8 2;
#X connect 8 0 2 0;
#X connect 9 0 34 0;
#X connect 10 0 6 0;
#X connect 11 0 23 0;
#X connect 13 0 15 0;
#X connect 14 0 18 0;
#X connect 16 0 6 0;
#X connect 17 0 13 0;
#X connect 18 0 27 0;
#X connect 18 1 17 0;
#X connect 23 0 16 0;
#X connect 23 1 25 0;
#X connect 25 0 0 0;
#X connect 27 0 13 0;
#X connect 30 0 29 0;
#X connect 31 0 29 0;
#X connect 31 0 32 0;
#X connect 32 0 29 0;
#X connect 34 0 33 0;
