#N canvas 74 633 1099 426 10;
#N canvas 345 182 494 344 META 0;
#X text 12 125 HELP_PATCH_AUTHORS "pd meta" information added by Jonathan
Wilkes for Pd version 0.42.;
#X text 12 25 LICENSE GPL v2;
#X text 12 5 KEYWORDS control;
#X text 12 105 AUTHOR Antoine Villeret;
#X text 12 85 INLET_0 bind settab;
#X text 12 45 DESCRIPTION ildareceive receive OSC messages;
#X restore -7 14 pd META;
#X floatatom -41 314 5 0 0 3 offset_x - -;
#X floatatom 19 314 5 0 0 3 offset_y - -;
#X floatatom 79 314 5 0 0 3 scale_x - -;
#X floatatom 139 314 5 0 0 3 scale_y - -;
#X floatatom 499 314 5 0 0 0 R - -;
#X floatatom 767 306 5 0 0 3 end_line_correction - -;
#X floatatom 887 306 5 0 0 3 scan_freq - -;
#X msg 248 128 settab x drawX y drawY r drawR g drawG b drawB;
#X obj 447 153 bng 15 250 50 0 empty empty empty 17 7 0 10 -262144
-1 -1;
#X obj 248 52 loadbang;
#X obj 196 313 tgl 15 0 empty empty invert_x 0 25 0 10 -262144 -1 -1
0 1;
#X obj 256 313 tgl 15 0 empty empty invert_y 0 25 0 10 -262144 -1 -1
0 1;
#X obj 316 313 tgl 15 0 empty empty blanking_off 0 25 0 10 -262144
-1 -1 0 1;
#X obj 396 313 tgl 15 0 empty empty invert_blanking 0 25 0 10 -262144
-1 -1 0 1;
#X obj 248 164 ildareceive;
#X msg 142 105 bind 3265;
#X msg 89 106 unbind;
#X obj 248 252 unpack 0 0 0;
#N canvas 428 191 1203 888 dsp 0;
#X obj 200 263 +~;
#X obj 200 191 *~ 1;
#X obj 329 30 r \$0-invert_x;
#X obj 314 10 r \$0-scale_x;
#X obj 199 61 phasor~;
#X obj 199 83 *~ 32;
#X obj 251 40 r \$0-size;
#X obj 251 60 - 1;
#X obj 107 42 r \$0-settab_x;
#X obj 329 52 t b f;
#X obj 314 85 f 1;
#X obj 215 243 r \$0-offset_x;
#X obj 199 2 r \$0-scan_freq;
#X floatatom 313 160 5 0 0 0 - - -;
#X floatatom 425 69 5 0 0 0 - - -;
#X obj 314 124 * 1;
#X obj 560 272 +~;
#X obj 560 200 *~ 1;
#X obj 559 70 phasor~;
#X obj 559 92 *~ 32;
#X obj 611 49 r \$0-size;
#X obj 611 69 - 1;
#X obj 689 61 t b f;
#X obj 674 94 f 1;
#X obj 559 11 r \$0-scan_freq;
#X floatatom 673 169 5 0 0 0 - - -;
#X floatatom 785 78 5 0 0 0 - - -;
#X obj 674 133 * 1;
#X obj 199 297 dac~ 3;
#X obj 559 306 dac~ 4;
#X obj 575 251 r \$0-offset_y;
#X obj 467 51 r \$0-settab_y;
#X obj 674 19 r \$0-scale_y;
#X obj 689 39 r \$0-invert_y;
#X obj 200 119 tabread4~ x;
#X obj 560 128 tabread4~ y;
#X obj 557 770 *~ 1;
#X obj 556 497 *~ 32;
#X obj 745 419 r \$0-size;
#X obj 745 439 - 1;
#X obj 556 371 r \$0-scan_freq;
#X obj 464 411 r \$0-settab_g;
#X obj 557 518 tabread4~ g;
#X obj 753 601 sel 0;
#X msg 753 623 -1;
#X obj 711 614 f 1;
#X floatatom 738 689 5 0 0 0 - - -;
#X obj 738 663 * 1;
#X obj 711 539 r \$0-intensity;
#X obj 726 559 r \$0-invert_blanking;
#X obj 556 865 dac~ 5;
#X obj 557 684 *~ 1;
#X obj 578 561 t f f;
#X obj 578 583 == 0;
#X obj 590 684 *~;
#X obj 578 539 r \$0-blanking_off;
#X obj 590 634 sig~ 1;
#X obj 356 72 sel 0 1;
#X msg 356 94 1;
#X msg 385 94 -1;
#X msg 716 103 1;
#X msg 745 103 -1;
#X obj 716 81 sel 0 1;
#X obj 620 603 tgl 15 0 empty empty empty 17 7 0 10 -262144 -1 -1 0
1;
#X obj 537 612 tgl 15 0 empty empty empty 17 7 0 10 -262144 -1 -1 0
1;
#X obj 557 812 +~ 0;
#X obj 726 581 t b f f;
#X obj 558 475 wrap~;
#X obj 558 453 +~ 1;
#X obj 682 373 r \$0-blank_delay;
#X obj 682 394 /;
#X obj 745 459 t b f;
#X obj 556 430 phasor~;
#X obj 682 416 + 100;
#X connect 0 0 28 0;
#X connect 1 0 0 0;
#X connect 2 0 9 0;
#X connect 3 0 10 0;
#X connect 3 0 14 0;
#X connect 4 0 5 0;
#X connect 5 0 34 0;
#X connect 6 0 7 0;
#X connect 7 0 5 1;
#X connect 8 0 34 0;
#X connect 9 0 10 0;
#X connect 9 1 57 0;
#X connect 10 0 15 0;
#X connect 11 0 0 1;
#X connect 12 0 4 0;
#X connect 15 0 1 1;
#X connect 15 0 13 0;
#X connect 16 0 29 0;
#X connect 17 0 16 0;
#X connect 18 0 19 0;
#X connect 19 0 35 0;
#X connect 20 0 21 0;
#X connect 21 0 19 1;
#X connect 22 0 23 0;
#X connect 22 1 62 0;
#X connect 23 0 27 0;
#X connect 24 0 18 0;
#X connect 27 0 17 1;
#X connect 27 0 25 0;
#X connect 30 0 16 1;
#X connect 31 0 35 0;
#X connect 32 0 23 0;
#X connect 32 0 26 0;
#X connect 33 0 22 0;
#X connect 34 0 1 0;
#X connect 35 0 17 0;
#X connect 36 0 65 0;
#X connect 37 0 42 0;
#X connect 38 0 39 0;
#X connect 39 0 37 1;
#X connect 39 0 71 0;
#X connect 40 0 72 0;
#X connect 41 0 42 0;
#X connect 42 0 51 0;
#X connect 43 0 44 0;
#X connect 43 1 47 1;
#X connect 44 0 47 1;
#X connect 45 0 47 0;
#X connect 47 0 46 0;
#X connect 47 0 36 1;
#X connect 48 0 45 0;
#X connect 49 0 66 0;
#X connect 51 0 36 0;
#X connect 52 0 53 0;
#X connect 52 1 54 1;
#X connect 52 1 63 0;
#X connect 53 0 51 1;
#X connect 53 0 64 0;
#X connect 54 0 36 0;
#X connect 55 0 52 0;
#X connect 56 0 54 0;
#X connect 57 0 58 0;
#X connect 57 1 59 0;
#X connect 58 0 15 1;
#X connect 59 0 15 1;
#X connect 60 0 27 1;
#X connect 61 0 27 1;
#X connect 62 0 60 0;
#X connect 62 1 61 0;
#X connect 65 0 50 0;
#X connect 66 0 45 0;
#X connect 66 1 43 0;
#X connect 66 2 65 1;
#X connect 67 0 37 0;
#X connect 68 0 67 0;
#X connect 69 0 70 0;
#X connect 70 0 73 0;
#X connect 71 0 70 0;
#X connect 71 1 70 1;
#X connect 72 0 68 0;
#X connect 73 0 68 1;
#X restore 712 107 pd dsp;
#X obj -41 360 s \$0-offset_x;
#X obj 19 410 s \$0-offset_y;
#X obj 139 375 s \$0-scale_y;
#X obj 80 349 s \$0-scale_x;
#X obj 196 401 s \$0-invert_x;
#X obj 255 355 s \$0-invert_y;
#X obj 396 429 s \$0-invert_blanking;
#X obj 316 383 s \$0-blanking_off;
#X obj 499 390 s \$0-intensity;
#X obj 300 276 unpack 0 0 0;
#X obj 350 251 unpack 0 0 0;
#X obj 442 249 unpack 0 0 0;
#X obj 767 348 s \$0-blank_delay;
#X floatatom 549 314 5 0 0 0 R - -;
#X floatatom 599 314 5 0 0 0 R - -;
#X text 508 294 intensity;
#X obj 835 30 table drawX 10000;
#X obj 835 50 table drawY 10000;
#X obj 835 70 table drawR 10000;
#X obj 835 90 table drawG 10000;
#X obj 835 110 table drawB 10000;
#X obj 621 211 s framesize;
#X floatatom 654 333 5 0 0 0 - - -;
#X obj 91 223 print ildareceive;
#X obj 248 215 route offset scale invert intensity end_line_correction
scan_freq framesize blanking_off;
#X connect 1 0 20 0;
#X connect 2 0 21 0;
#X connect 3 0 23 0;
#X connect 4 0 22 0;
#X connect 5 0 28 0;
#X connect 6 0 32 0;
#X connect 8 0 15 0;
#X connect 10 0 8 0;
#X connect 10 0 16 0;
#X connect 11 0 24 0;
#X connect 12 0 25 0;
#X connect 13 0 27 0;
#X connect 14 0 26 0;
#X connect 15 0 44 0;
#X connect 16 0 15 0;
#X connect 17 0 15 0;
#X connect 18 0 1 0;
#X connect 18 1 2 0;
#X connect 29 0 3 0;
#X connect 29 1 4 0;
#X connect 30 0 11 0;
#X connect 30 1 12 0;
#X connect 30 2 14 0;
#X connect 31 0 5 0;
#X connect 31 1 33 0;
#X connect 31 2 34 0;
#X connect 44 0 18 0;
#X connect 44 1 29 0;
#X connect 44 2 30 0;
#X connect 44 3 31 0;
#X connect 44 4 6 0;
#X connect 44 5 7 0;
#X connect 44 6 42 0;
#X connect 44 6 41 0;
#X connect 44 7 13 0;
