#N canvas 671 159 1059 300 10;
#X obj 544 81 tabread4~ drawX;
#X obj 544 195 +~;
#X obj 544 153 *~ 1;
#X obj 677 91 r \$0-invert_x;
#X obj 662 71 r \$0-scale_x;
#X obj 677 111 sel 0;
#X msg 677 133 -1;
#X obj 662 155 *;
#X obj 24 158 udp2table;
#X obj 24 17 inlet;
#X obj 883 88 table X0 32;
#X obj 883 108 table Y0 32;
#X obj 883 128 table R0 32;
#X obj 883 148 table G0 32;
#X obj 883 168 table B0 32;
#X obj 963 88 table X1 32;
#X obj 963 108 table Y1 32;
#X obj 963 128 table R1 32;
#X obj 963 148 table G1 32;
#X obj 963 168 table B1 32;
#X msg 40 129 settab x X\$1 y Y\$1 r R\$1 g G\$1 b B\$1;
#X obj 40 110 tgl 15 0 empty empty empty 17 7 0 10 -262144 -1 -1 0
1;
#X obj 543 23 phasor~;
#X obj 543 45 *~ 32;
#X obj 595 2 r \$0-size;
#X obj 595 22 - 1;
#X connect 0 0 2 0;
#X connect 2 0 1 0;
#X connect 3 0 5 0;
#X connect 4 0 7 0;
#X connect 5 0 6 0;
#X connect 5 1 7 1;
#X connect 6 0 7 1;
#X connect 7 0 2 1;
#X connect 9 0 8 0;
#X connect 20 0 8 0;
#X connect 21 0 20 0;
#X connect 22 0 23 0;
#X connect 23 0 0 0;
#X connect 24 0 25 0;
#X connect 25 0 23 1;
