#N canvas 1079 120 702 655 10;
#N canvas 572 127 450 537 make_table 0;
#X obj 51 -785 tabwrite ilda_X;
#X obj 165 -715 tabwrite ilda_Y;
#X obj 170 -938 until;
#X obj 170 -917 f;
#X obj 195 -917 + 1;
#X obj 170 -1018 t b b;
#X msg 197 -998 0;
#X obj 170 -1038 bng 15 250 50 0 empty empty empty 17 7 0 10 -262144
-1 -1;
#X obj 169 -892 t f f;
#X obj 168 -1064 loadbang;
#X obj 51 -814 t f;
#X obj 134 -614 % 2;
#X obj 134 -634 / 100;
#X obj 58 -842 / 99;
#X obj 170 -976 t f f;
#X obj 110 -883 - 1;
#X obj 161 -668 / 10;
#X obj 180 -780 * -1;
#X msg 170 -997 100;
#X obj 133 -583 tabwrite ilda_R;
#X connect 2 0 3 0;
#X connect 3 0 4 0;
#X connect 3 0 8 0;
#X connect 4 0 3 1;
#X connect 5 0 18 0;
#X connect 5 1 6 0;
#X connect 6 0 3 1;
#X connect 7 0 5 0;
#X connect 8 0 12 0;
#X connect 8 0 13 0;
#X connect 8 1 0 1;
#X connect 8 1 1 1;
#X connect 8 1 19 1;
#X connect 9 0 7 0;
#X connect 10 0 0 0;
#X connect 11 0 19 0;
#X connect 12 0 11 0;
#X connect 13 0 10 0;
#X connect 13 0 17 0;
#X connect 14 0 2 0;
#X connect 14 1 15 0;
#X connect 15 0 13 1;
#X connect 15 0 16 0;
#X connect 16 0 12 1;
#X connect 17 0 1 0;
#X connect 18 0 14 0;
#X restore -46 110 pd make_table;
#X obj 70 540 ildasend;
#X obj -54 268 bng 15 250 50 0 empty empty send_table 17 7 0 10 -262144
-1 -1;
#X obj 70 611 print ildasend;
#X msg -11 355 disconnect;
#N canvas 78 278 1748 737 settings 0;
#X obj 56 11 cnv 15 198 448 empty empty settings 8 8 0 14 -261234 -258113
0;
#X obj 62 44 nbx 5 14 -1000 1000 0 1 \$0-posx_out \$0-posx_in proj_position_x
0 -8 0 10 -262144 -1 -1 0.86 256;
#X obj 62 74 nbx 5 14 -1000 1000 0 1 \$0-posy_out \$0-posy_in proj_position_y
0 -8 0 10 -262144 -1 -1 -0.32 256;
#X obj 62 104 nbx 5 14 -1000 1000 0 1 \$0-sizex_out \$0-sizex_in proj_scale_x
0 -8 0 10 -262144 -1 -1 1 256;
#X obj 62 134 nbx 5 14 -1000 1000 0 1 \$0-sizey_out \$0-sizey_in proj_scale_y
0 -8 0 10 -262144 -1 -1 1 256;
#X obj 62 154 tgl 15 1 \$0-invertx_out \$0-invertx_in invert_X 17 7
0 10 -262144 -1 -1 0 1;
#X obj 62 174 tgl 15 1 \$0-inverty_out \$0-inverty_in invert_Y 17 7
0 10 -262144 -1 -1 0 1;
#X obj 62 194 tgl 15 1 \$0-blankingoff_out \$0-blankingoff_in blanking_OFF
17 7 0 10 -262144 -1 -1 0 1;
#X obj 62 214 tgl 15 1 \$0-invertblanking_out \$0-invertblanking_in
blanking_invert 17 7 0 10 -262144 -1 -1 0 1;
#X obj 61 246 nbx 5 14 0 255 0 1 \$0-intensityr_out \$0-intensityr_in
R 0 -8 0 10 -262144 -1 -1 0.85 256;
#X obj 60 404 nbx 5 14 0 1000 0 1 \$0-end_line_correction_out \$0-end_line_correction_in
sample 57 7 0 10 -262144 -1 -1 405 256;
#X obj 60 443 nbx 5 14 1 100 0 1 \$0-scan_freq_out \$0-scan_freq_in
kHz 57 7 0 10 -262144 -1 -1 62.5 256;
#X text 61 427 scanner frequency;
#X obj 364 67 route setting;
#X obj 364 89 route offset scale invert intensity colormode angle_correction
end_line_correction scan_freq;
#X obj 364 163 unpack 0 0 0;
#X obj 454 163 unpack 0 0 0;
#X obj 364 183 s \$0-posx_in;
#X obj 373 203 s \$0-posy_in;
#X obj 394 223 s \$0-posz_in;
#X obj 454 183 s \$0-sizex_in;
#X obj 463 203 s \$0-sizey_in;
#X obj 484 223 s \$0-sizez_in;
#X obj 554 163 unpack 0 0 0;
#X obj 554 183 s \$0-invertx_in;
#X obj 563 203 s \$0-inverty_in;
#X obj 584 223 s \$0-invertblanking_in;
#X obj 373 324 t b f;
#X obj 394 345 t b f;
#X obj 364 389 pack 0 0 0;
#X obj 493 324 t b f;
#X obj 514 345 t b f;
#X obj 484 389 pack 0 0 0;
#X obj 623 324 t b f;
#X obj 644 345 t b f;
#X obj 614 389 pack 0 0 0;
#X obj 364 263 r \$0-posx_out;
#X obj 373 283 r \$0-posy_out;
#X obj 394 303 r \$0-posz_out;
#X obj 484 263 r \$0-sizex_out;
#X obj 493 283 r \$0-sizey_out;
#X obj 514 303 r \$0-sizez_out;
#X obj 614 263 r \$0-invertx_out;
#X obj 623 283 r \$0-inverty_out;
#X obj 644 303 r \$0-invertblanking_out;
#X msg 364 411 offset \$1 \$2 \$3;
#X msg 484 411 scale \$1 \$2 \$3;
#X msg 614 411 invert \$1 \$2 \$3;
#X obj 484 669 s \$0-ildasend_in;
#X obj 364 45 r \$0-ildasend_out;
#X obj 121 246 nbx 5 14 0 255 0 1 \$0-intensityg_out \$0-intensityg_in
G 0 -8 0 10 -262144 -1 -1 6.29 256;
#X obj 181 246 nbx 5 14 0 255 0 1 \$0-intensityb_out \$0-intensityb_in
B 0 -8 0 10 -262144 -1 -1 9.28 256;
#X obj 694 163 unpack 0 0 0;
#X obj 694 183 s \$0-intensityr_in;
#X obj 703 203 s \$0-intensityg_in;
#X obj 724 223 s \$0-intensityb_in;
#X obj 813 324 t b f;
#X obj 834 345 t b f;
#X obj 804 389 pack 0 0 0;
#X obj 804 263 r \$0-intensityr_out;
#X obj 813 283 r \$0-intensityg_out;
#X obj 834 303 r \$0-intensityb_out;
#X msg 804 411 intensity \$1 \$2 \$3;
#X obj 993 268 r \$0-scan_freq_out;
#X msg 993 290 scan_freq \$1;
#X obj 1113 268 r \$0-end_line_correction_out;
#X msg 1113 290 end_line_correction \$1;
#X obj 1289 266 r \$0-angle_correction_out;
#X msg 1288 288 angle_correction \$1;
#X obj 117 566 pack f f f f f f f f;
#X obj 117 544 f;
#X obj 127 523 t b f;
#X obj 145 504 t b f;
#X obj 160 485 t b f;
#X obj 175 464 t b f;
#X obj 190 445 t b f;
#X obj 207 425 t b f;
#X obj 222 406 t b f;
#X msg 117 586 dst_point \$1 \$2 \$3 \$4 \$5 \$6 \$7 \$8;
#X obj 60 266 cnv 15 190 120 empty empty empty 20 12 0 14 -233017 -66577
0;
#X obj 72 289 nbx 5 16 -20000 20000 0 1 empty empty x -10 7 0 12 -203904
-1 -1 -0.56 256;
#X obj 72 309 nbx 5 16 -20000 20000 0 1 empty empty y -10 7 0 12 -203904
-1 -1 1 256;
#X obj 172 289 nbx 5 16 -2000 20000 0 1 empty empty x -10 7 0 12 -203904
-1 -1 1 256;
#X obj 172 309 nbx 5 16 -20000 20000 0 1 empty empty y -10 7 0 12 -203904
-1 -1 1 256;
#X obj 172 339 nbx 5 16 -20000 20000 0 1 empty empty x -10 7 0 12 -203904
-1 -1 1 256;
#X obj 172 359 nbx 5 16 -20000 20000 0 1 empty empty y -10 7 0 12 -203904
-1 -1 -1 256;
#X obj 72 339 nbx 5 16 -20000 20000 0 1 empty empty x -10 7 0 12 -203904
-1 -1 -0.6 256;
#X obj 72 359 nbx 5 16 -20000 20000 0 1 empty empty y -10 7 0 12 -203904
-1 -1 -1 256;
#X obj 64 269 tgl 15 0 empty empty perspective_correction 17 7 0 10
-262144 -1 -1 0 1;
#X msg 335 472 perspective_correction \$1;
#X text 58 390 blank delay;
#X connect 13 0 14 0;
#X connect 14 0 15 0;
#X connect 14 1 16 0;
#X connect 14 2 23 0;
#X connect 14 3 52 0;
#X connect 15 0 17 0;
#X connect 15 1 18 0;
#X connect 15 2 19 0;
#X connect 16 0 20 0;
#X connect 16 1 21 0;
#X connect 16 2 22 0;
#X connect 23 0 24 0;
#X connect 23 1 25 0;
#X connect 23 2 26 0;
#X connect 27 0 29 0;
#X connect 27 1 29 1;
#X connect 28 0 29 0;
#X connect 28 1 29 2;
#X connect 29 0 45 0;
#X connect 30 0 32 0;
#X connect 30 1 32 1;
#X connect 31 0 32 0;
#X connect 31 1 32 2;
#X connect 32 0 46 0;
#X connect 33 0 35 0;
#X connect 33 1 35 1;
#X connect 34 0 35 0;
#X connect 34 1 35 2;
#X connect 35 0 47 0;
#X connect 36 0 29 0;
#X connect 37 0 27 0;
#X connect 38 0 28 0;
#X connect 39 0 32 0;
#X connect 40 0 30 0;
#X connect 41 0 31 0;
#X connect 42 0 35 0;
#X connect 43 0 33 0;
#X connect 44 0 34 0;
#X connect 45 0 48 0;
#X connect 46 0 48 0;
#X connect 47 0 48 0;
#X connect 49 0 13 0;
#X connect 52 0 53 0;
#X connect 52 1 54 0;
#X connect 52 2 55 0;
#X connect 56 0 58 0;
#X connect 56 1 58 1;
#X connect 57 0 58 0;
#X connect 57 1 58 2;
#X connect 58 0 62 0;
#X connect 59 0 58 0;
#X connect 60 0 56 0;
#X connect 61 0 57 0;
#X connect 62 0 48 0;
#X connect 63 0 64 0;
#X connect 64 0 48 0;
#X connect 65 0 66 0;
#X connect 66 0 48 0;
#X connect 67 0 68 0;
#X connect 68 0 48 0;
#X connect 69 0 78 0;
#X connect 70 0 69 0;
#X connect 71 0 70 0;
#X connect 71 1 69 1;
#X connect 72 0 70 0;
#X connect 72 1 69 2;
#X connect 73 0 70 0;
#X connect 73 1 69 3;
#X connect 74 0 70 0;
#X connect 74 1 69 4;
#X connect 75 0 70 0;
#X connect 75 1 69 5;
#X connect 76 0 70 0;
#X connect 76 1 69 6;
#X connect 77 0 70 0;
#X connect 77 1 69 7;
#X connect 78 0 48 0;
#X connect 80 0 70 0;
#X connect 81 0 71 0;
#X connect 82 0 72 0;
#X connect 83 0 73 0;
#X connect 84 0 74 0;
#X connect 85 0 75 0;
#X connect 86 0 76 0;
#X connect 87 0 77 0;
#X connect 88 0 89 0;
#X connect 89 0 48 0;
#X coords 0 -1 1 1 200 450 2 55 10;
#X restore 379 22 pd settings;
#X obj 70 492 r \$0-ildasend_in;
#X obj 77 579 s \$0-ildasend_out;
#X obj -46 30 table ilda_Y 100;
#X obj -46 50 table ilda_R 100;
#X obj -46 70 table ilda_G 100;
#X obj -46 90 table ilda_B 100;
#X msg -85 202 settab x ilda_X y ilda_Y r ilda_R g ilda_G b ilda_B
;
#X obj -46 11 table ilda_X 100;
#X text -77 182 settab: associate an ILDA channel to a table;
#X text 28 267 pack table data into an OSC blob and send it;
#X text 102 297 connect <ip> <port> \, no multicast for now;
#N canvas 1 104 937 729 ildafile 0;
#X obj -815 28 openpanel;
#X floatatom -752 190 5 0 0 0 frame - -;
#X obj -690 264 route frame_info file_info;
#X obj -472 318 unpack 0 0 0 0;
#X obj -815 225 ildafile;
#X msg -815 50 read \$1 \, 0;
#X obj -662 172 f;
#X obj -589 189 + 1;
#X obj -653 129 tgl 15 0 empty empty empty 17 7 0 10 -262144 -1 -1
1 1;
#X obj -589 213 % 25;
#X obj -661 148 metro 200;
#X floatatom -591 124 5 0 0 0 - - -;
#X obj -793 -53 inlet;
#X obj -575 -29 inlet;
#X connect 0 0 5 0;
#X connect 1 0 4 0;
#X connect 2 1 3 0;
#X connect 3 0 9 1;
#X connect 4 0 2 0;
#X connect 5 0 4 0;
#X connect 6 0 7 0;
#X connect 6 0 1 0;
#X connect 7 0 9 0;
#X connect 8 0 10 0;
#X connect 9 0 6 1;
#X connect 10 0 6 0;
#X connect 11 0 10 1;
#X connect 12 0 0 0;
#X connect 13 0 4 0;
#X restore 131 420 pd ildafile;
#X obj 131 392 bng 15 250 50 0 empty empty open_a_file 17 7 0 10 -4032
-258113 -1;
#X obj -81 159 loadbang;
#X msg -24 330 connect test-video 3265;
#X msg -38 297 connect 127.0.0.1 3265;
#X connect 1 0 3 0;
#X connect 1 0 7 0;
#X connect 2 0 1 0;
#X connect 4 0 1 0;
#X connect 6 0 1 0;
#X connect 12 0 1 0;
#X connect 12 0 17 1;
#X connect 18 0 17 0;
#X connect 19 0 12 0;
#X connect 21 0 1 0;
