#N canvas 617 202 1292 783 12;
#X msg 130 74 clear;
#X text 175 73 empty the buffer;
#X obj 37 7 openpanel;
#X obj 37 -11 bng 15 250 50 0 empty empty open_a_file 17 7 0 10 -4032
-258113 -1;
#N canvas 504 317 494 344 META 0;
#X text 12 25 LICENSE GPL v2 or later;
#X text 12 5 KEYWORDS control filesystem;
#X text 12 45 DESCRIPTION read and write ILDA files;
#X text 12 175 comment;
#X text 12 105 AUTHOR Antoine Villeret - based on Martin Peach's [binfile]
;
#X text 12 65 INLET_0 float read clear settab write;
#X text 12 85 OUTLET_0 frame_info;
#X restore 1207 648 pd META;
#X text 246 -90 read and write ilda files;
#X floatatom 401 318 5 0 0 0 frame - -;
#X obj 772 137 table drawX 32;
#X obj 772 157 table drawY 32;
#X obj 772 197 table drawR 32;
#X obj 772 217 table drawG 32;
#X obj 772 237 table drawB 32;
#X msg 338 216 settab x drawX y drawY r drawR g drawG b drawB;
#X obj 384 14 loadbang;
#X text 1053 625 Antoine Villeret - 2013/03/05;
#X obj 772 177 table drawZ 32;
#X obj 502 535 s size;
#X obj 463 392 route frame_info file_info;
#X obj 681 446 unpack 0 0 0 0;
#X floatatom 681 483 5 0 0 3 3D_frame - -;
#X floatatom 752 480 5 0 0 3 2D_frame - -;
#X floatatom 825 479 5 0 0 3 color_lookup_table - -;
#X floatatom 964 479 5 0 0 3 true_color_frame - -;
#X text 704 425 number of frame in file;
#X obj 463 446 unpack s s 0 0 0 0 0;
#X symbolatom 463 494 10 0 0 0 compagny_name - -;
#X floatatom 463 514 5 0 0 0 format - -;
#X floatatom 463 534 5 0 0 0 number_of_points - -;
#X text 670 628 3: true color frame;
#X text 670 608 2: color lookup table;
#X text 670 588 1: 2D frame \,;
#X text 670 567 0: 3D frame \,;
#X text 636 547 frame format desciption :;
#X floatatom 463 554 5 0 0 0 frame_number - -;
#X floatatom 463 574 5 0 0 0 total_frame_number - -;
#X floatatom 463 594 5 0 0 0 scanner/projector - -;
#X symbolatom 463 470 10 0 0 0 name - -;
#X text 572 -72 The ildafile object reads and writes ILDA files to
and from a buffer in memory. It outputs each frame one by one on demand
directly into tables. Intended to be used with makeildaframe and udp2ilda.
Part of the ILDA library.;
#X obj 338 353 ildafile;
#X obj 181 -89 ildafile;
#X obj 491 300 f;
#X obj 564 317 + 1;
#X obj 500 257 tgl 15 0 empty empty empty 17 7 0 10 -262144 -1 -1 1
1;
#X obj 564 341 % 25;
#X obj 492 276 metro 200;
#X floatatom 562 252 5 0 0 0 - - -;
#X msg 36 29 read \$1;
#X obj 66 153 print;
#X obj 384 38 t b b;
#X msg 147 275 autoresize \$1;
#X obj 149 248 tgl 15 0 empty empty empty 17 7 0 10 -262144 -1 -1 1
1;
#X msg 291 131 read ILDA_library/bird_3.ild \, 2;
#X connect 0 0 38 0;
#X connect 2 0 46 0;
#X connect 3 0 2 0;
#X connect 6 0 38 0;
#X connect 12 0 38 0;
#X connect 13 0 48 0;
#X connect 17 0 24 0;
#X connect 17 1 18 0;
#X connect 18 0 19 0;
#X connect 18 0 43 1;
#X connect 18 1 20 0;
#X connect 18 2 21 0;
#X connect 18 3 22 0;
#X connect 24 0 36 0;
#X connect 24 1 25 0;
#X connect 24 2 26 0;
#X connect 24 3 27 0;
#X connect 24 4 33 0;
#X connect 24 5 34 0;
#X connect 24 6 35 0;
#X connect 27 0 16 0;
#X connect 38 0 17 0;
#X connect 40 0 41 0;
#X connect 40 0 6 0;
#X connect 41 0 43 0;
#X connect 42 0 44 0;
#X connect 43 0 40 1;
#X connect 44 0 40 0;
#X connect 45 0 44 1;
#X connect 46 0 47 0;
#X connect 48 0 51 0;
#X connect 48 1 12 0;
#X connect 49 0 38 0;
#X connect 50 0 49 0;
#X connect 51 0 38 0;
