#N canvas 642 333 1242 667 10;
#X declare -path ./dependencies;
#X obj 93 214 udp2table;
#X obj 188 488 table X0 32;
#X obj 188 508 table Y0 32;
#X obj 188 528 table R0 32;
#X obj 188 548 table G0 32;
#X obj 188 568 table B0 32;
#X obj 288 488 table X1 32;
#X obj 288 508 table Y1 32;
#X obj 288 528 table R1 32;
#X obj 288 548 table G1 32;
#X obj 288 568 table B1 32;
#X msg 109 185 settab x X\$1 y Y\$1 r R\$1 g G\$1 b B\$1;
#X obj 109 166 tgl 15 0 empty empty empty 17 7 0 10 -262144 -1 -1 0
1;
#X obj 93 90 t a a;
#N canvas 1 98 560 300 settab 0;
#X obj 126 35 inlet;
#X obj 91 157 list append;
#X obj 126 117 t b a;
#X obj 126 57 route settab;
#X obj 172 157 list prepend \$0-;
#X msg 172 177 \; \$1settab_\$2 set \$3;
#X text 295 186 send array name to tabread4 and others...;
#X obj 126 85 list split 2;
#X connect 0 0 3 0;
#X connect 1 0 7 0;
#X connect 2 0 1 0;
#X connect 2 1 4 0;
#X connect 3 0 7 0;
#X connect 4 0 5 0;
#X connect 7 0 2 0;
#X connect 7 1 1 1;
#X restore 125 110 pd settab;
#X obj 93 255 unpack 0 0 0 0 0 0 0 0 0 0 0 0 0;
#X floatatom -169 335 5 0 0 3 offset_x - -;
#X floatatom -89 335 5 0 0 3 offset_y - -;
#X floatatom -29 335 5 0 0 3 scale_x - -;
#X floatatom 31 335 5 0 0 3 scale_y - -;
#X floatatom 391 335 5 0 0 3 intensity - -;
#X floatatom 532 330 5 0 0 3 angle_correction - -;
#X floatatom 655 327 5 0 0 3 end_line_correction - -;
#X floatatom 796 326 5 0 0 3 scan_freq - -;
#X obj 88 334 tgl 15 0 empty empty invert_x 0 25 0 10 -262144 -1 -1
0 1;
#X obj 148 334 tgl 15 0 empty empty invert_y 0 25 0 10 -262144 -1 -1
1 1;
#X obj 208 334 tgl 15 0 empty empty blanking_off 0 25 0 10 -262144
-1 -1 0 1;
#X obj 288 334 tgl 15 0 empty empty invert_blanking 0 25 0 10 -262144
-1 -1 0 1;
#X obj 461 335 vradio 15 1 0 4 empty empty mode 0 -8 0 10 -262144 -1
-1 2;
#X obj 93 234 route settings info;
#X obj -169 386 s \$0-offset_x;
#X obj -89 431 s \$0-offset_y;
#X obj 31 431 s \$0-scale_y;
#X obj -29 385 s \$0-scale_x;
#X obj 88 385 s \$0-invert_x;
#X obj 148 430 s \$0-invert_y;
#X obj 873 479 s \$0-scan_freq;
#X obj 888 357 r size;
#X obj 975 411 s \$0-size;
#X obj 873 448 /;
#N canvas 432 191 1203 888 dsp 0;
#X obj 200 263 +~;
#X obj 200 191 *~ 1;
#X obj 329 30 r \$0-invert_x;
#X obj 314 10 r \$0-scale_x;
#X obj 199 61 phasor~;
#X obj 199 83 *~ 32;
#X obj 251 40 r \$0-size;
#X obj 251 60 - 1;
#X obj 107 42 r \$0-settab_x;
#X obj 329 52 t b f;
#X obj 314 85 f 1;
#X obj 215 243 r \$0-offset_x;
#X obj 199 2 r \$0-scan_freq;
#X floatatom 313 160 5 0 0 0 - - -;
#X floatatom 425 69 5 0 0 0 - - -;
#X obj 314 124 * 1;
#X obj 560 272 +~;
#X obj 560 200 *~ 1;
#X obj 559 70 phasor~;
#X obj 559 92 *~ 32;
#X obj 611 49 r \$0-size;
#X obj 611 69 - 1;
#X obj 689 61 t b f;
#X obj 674 94 f 1;
#X obj 559 11 r \$0-scan_freq;
#X floatatom 673 169 5 0 0 0 - - -;
#X floatatom 785 78 5 0 0 0 - - -;
#X obj 674 133 * 1;
#X obj 199 297 dac~ 3;
#X obj 559 306 dac~ 4;
#X obj 575 251 r \$0-offset_y;
#X obj 467 51 r \$0-settab_y;
#X obj 674 19 r \$0-scale_y;
#X obj 689 39 r \$0-invert_y;
#X obj 200 119 tabread4~ x;
#X obj 560 128 tabread4~ y;
#X obj 557 770 *~ 1;
#X obj 556 497 *~ 32;
#X obj 745 419 r \$0-size;
#X obj 745 439 - 1;
#X obj 556 371 r \$0-scan_freq;
#X obj 464 411 r \$0-settab_g;
#X obj 557 518 tabread4~ g;
#X obj 753 601 sel 0;
#X msg 753 623 -1;
#X obj 711 614 f 1;
#X floatatom 738 689 5 0 0 0 - - -;
#X obj 738 663 * 1;
#X obj 711 539 r \$0-intensity;
#X obj 726 559 r \$0-invert_blanking;
#X obj 556 865 dac~ 5;
#X obj 557 684 *~ 1;
#X obj 578 561 t f f;
#X obj 578 583 == 0;
#X obj 590 684 *~;
#X obj 578 539 r \$0-blanking_off;
#X obj 590 634 sig~ 1;
#X obj 356 72 sel 0 1;
#X msg 356 94 1;
#X msg 385 94 -1;
#X msg 716 103 1;
#X msg 745 103 -1;
#X obj 716 81 sel 0 1;
#X obj 620 603 tgl 15 0 empty empty empty 17 7 0 10 -262144 -1 -1 0
1;
#X obj 537 612 tgl 15 0 empty empty empty 17 7 0 10 -262144 -1 -1 1
1;
#X obj 557 812 +~ 0;
#X obj 726 581 t b f f;
#X obj 558 475 wrap~;
#X obj 558 453 +~ 1;
#X obj 682 373 r \$0-blank_delay;
#X obj 682 394 /;
#X obj 745 459 t b f;
#X obj 556 430 phasor~;
#X obj 682 416 + 100;
#X connect 0 0 28 0;
#X connect 1 0 0 0;
#X connect 2 0 9 0;
#X connect 3 0 10 0;
#X connect 3 0 14 0;
#X connect 4 0 5 0;
#X connect 5 0 34 0;
#X connect 6 0 7 0;
#X connect 7 0 5 1;
#X connect 8 0 34 0;
#X connect 9 0 10 0;
#X connect 9 1 57 0;
#X connect 10 0 15 0;
#X connect 11 0 0 1;
#X connect 12 0 4 0;
#X connect 15 0 1 1;
#X connect 15 0 13 0;
#X connect 16 0 29 0;
#X connect 17 0 16 0;
#X connect 18 0 19 0;
#X connect 19 0 35 0;
#X connect 20 0 21 0;
#X connect 21 0 19 1;
#X connect 22 0 23 0;
#X connect 22 1 62 0;
#X connect 23 0 27 0;
#X connect 24 0 18 0;
#X connect 27 0 17 1;
#X connect 27 0 25 0;
#X connect 30 0 16 1;
#X connect 31 0 35 0;
#X connect 32 0 23 0;
#X connect 32 0 26 0;
#X connect 33 0 22 0;
#X connect 34 0 1 0;
#X connect 35 0 17 0;
#X connect 36 0 65 0;
#X connect 37 0 42 0;
#X connect 38 0 39 0;
#X connect 39 0 37 1;
#X connect 39 0 71 0;
#X connect 40 0 72 0;
#X connect 41 0 42 0;
#X connect 42 0 51 0;
#X connect 43 0 44 0;
#X connect 43 1 47 1;
#X connect 44 0 47 1;
#X connect 45 0 47 0;
#X connect 47 0 46 0;
#X connect 47 0 36 1;
#X connect 48 0 45 0;
#X connect 49 0 66 0;
#X connect 51 0 36 0;
#X connect 52 0 53 0;
#X connect 52 1 54 1;
#X connect 52 1 63 0;
#X connect 53 0 51 1;
#X connect 53 0 64 0;
#X connect 54 0 36 0;
#X connect 55 0 52 0;
#X connect 56 0 54 0;
#X connect 57 0 58 0;
#X connect 57 1 59 0;
#X connect 58 0 15 1;
#X connect 59 0 15 1;
#X connect 60 0 27 1;
#X connect 61 0 27 1;
#X connect 62 0 60 0;
#X connect 62 1 61 0;
#X connect 65 0 50 0;
#X connect 66 0 45 0;
#X connect 66 1 43 0;
#X connect 66 2 65 1;
#X connect 67 0 37 0;
#X connect 68 0 67 0;
#X connect 69 0 70 0;
#X connect 70 0 73 0;
#X connect 71 0 70 0;
#X connect 71 1 70 1;
#X connect 72 0 68 0;
#X connect 73 0 68 1;
#X restore 712 107 pd dsp;
#X obj 289 429 s \$0-invert_blanking;
#X obj 208 384 s \$0-blanking_off;
#X obj 391 400 s \$0-intensity;
#X obj 888 379 t b f f;
#X obj 873 412 pack 30000 0;
#X obj 25 -47 loadbang;
#X msg 25 -27 0;
#X text 388 514 tables are duplicated to do double buffering (not implemented
yet);
#X obj 569 440 s \$0-blank_delay;
#X floatatom 569 417 5 0 0 0 - - -;
#X obj 782 273 * 1000;
#X floatatom 782 241 5 0 0 0 - - -;
#X obj 93 38 udpreceive 3265;
#X obj 267 24 declare -path ./dependencies;
#X msg 25 -7 settab x X\$1 y Y\$1 r R\$1 g G\$1 b B\$1;
#X obj -86 267 print;
#X connect 0 0 29 0;
#X connect 11 0 0 0;
#X connect 12 0 11 0;
#X connect 13 0 0 0;
#X connect 13 1 14 0;
#X connect 15 0 16 0;
#X connect 15 0 56 0;
#X connect 15 1 17 0;
#X connect 15 2 18 0;
#X connect 15 3 19 0;
#X connect 15 4 24 0;
#X connect 15 5 25 0;
#X connect 15 6 26 0;
#X connect 15 7 27 0;
#X connect 15 8 20 0;
#X connect 15 9 28 0;
#X connect 15 10 21 0;
#X connect 15 11 22 0;
#X connect 15 12 23 0;
#X connect 16 0 30 0;
#X connect 17 0 31 0;
#X connect 18 0 33 0;
#X connect 19 0 32 0;
#X connect 20 0 43 0;
#X connect 23 0 45 0;
#X connect 24 0 34 0;
#X connect 25 0 35 0;
#X connect 26 0 42 0;
#X connect 27 0 41 0;
#X connect 29 0 15 0;
#X connect 37 0 44 0;
#X connect 39 0 36 0;
#X connect 44 0 45 0;
#X connect 44 1 45 1;
#X connect 44 2 38 0;
#X connect 45 0 39 0;
#X connect 46 0 47 0;
#X connect 47 0 55 0;
#X connect 50 0 49 0;
#X connect 51 0 23 0;
#X connect 52 0 51 0;
#X connect 53 0 13 0;
#X connect 55 0 13 0;
