#N canvas 801 86 885 661 10;
#X obj 213 169 bng 15 250 50 0 empty empty empty 17 7 0 10 -262144
-1 -1;
#X msg 240 143 settab;
#X msg 250 163 settab ilda_X ilda_Y ilda_Z;
#X msg 305 135 settab 0.33 0.4 0.5;
#X obj -46 10 table ilda_X 1000;
#X obj -46 30 table ilda_Y 1000;
#X obj -46 50 table ilda_Z 1000;
#X floatatom 156 150 5 0 0 0 - - -;
#X obj 134 111 bng 15 250 50 0 empty empty empty 17 7 0 10 -262144
-1 -1;
#X obj 242 107 loadbang;
#X msg 170 111 4;
#X obj 208 227 list length;
#X floatatom 208 248 5 0 0 0 - - -;
#X msg 293 290 scale 65535 65535 1;
#X obj 76 323 list split 3;
#X obj 76 359 unpack 0 0 0;
#X obj 108 392 << 8;
#X obj 134 427 +;
#X floatatom 134 448 5 0 0 0 segment_number - -;
#X obj 150 270 route frame;
#N canvas 1 149 450 537 make_table 0;
#X obj 112 -846 tabwrite ilda_X;
#X obj 161 -754 tabwrite ilda_Y;
#X obj 170 -978 until;
#X obj 170 -957 f;
#X obj 195 -957 + 1;
#X obj 170 -1018 t b b;
#X msg 197 -998 0;
#X obj 170 -1038 bng 15 250 50 0 empty empty empty 17 7 0 10 -262144
-1 -1;
#X obj 169 -932 t f f;
#X obj 132 -605 tabwrite ilda_Z;
#X obj 168 -1064 loadbang;
#X msg 170 -998 1000;
#X obj 133 -873 t f;
#X obj 134 -684 % 2;
#X obj 137 -712 / 100;
#X obj 134 -663 t b;
#X msg 134 -642 255;
#X obj 165 -810 * -1;
#X connect 2 0 3 0;
#X connect 3 0 4 0;
#X connect 3 0 8 0;
#X connect 4 0 3 1;
#X connect 5 0 11 0;
#X connect 5 1 6 0;
#X connect 6 0 3 1;
#X connect 7 0 5 0;
#X connect 8 0 12 0;
#X connect 8 0 14 0;
#X connect 8 0 17 0;
#X connect 8 1 0 1;
#X connect 8 1 1 1;
#X connect 8 1 9 1;
#X connect 10 0 7 0;
#X connect 11 0 2 0;
#X connect 12 0 0 0;
#X connect 13 0 15 0;
#X connect 14 0 13 0;
#X connect 15 0 16 0;
#X connect 16 0 9 0;
#X connect 17 0 1 0;
#X restore -46 70 pd make_table;
#X floatatom 172 381 5 0 0 0 - - -;
#X floatatom 92 413 5 0 0 0 - - -;
#X floatatom -17 414 5 0 0 0 status_byte - -;
#X obj 510 471 tabread ilda_Z;
#X msg 510 446 0 \, 1 \, 2 \, 3;
#X floatatom 510 492 5 0 0 0 - - -;
#X obj 550 492 print;
#X obj 631 418 tabwrite ilda_Z;
#X obj 634 390 unpack;
#X msg 634 364 0 0 \, 1 1 \, 1 2 \, 0 3;
#X msg 162 74 1000;
#X obj 209 206 make_ilda_frame 1000;
#X obj 95 114 tgl 15 0 empty empty empty 17 7 0 10 -262144 -1 -1 0
1;
#X floatatom 63 117 5 0 0 0 - - -;
#X msg 21 168 border 0 0.5;
#X msg 31 192 border 0 0;
#X msg 41 216 border 0.5 0;
#X msg 50 240 border 0.5 0.5;
#X msg 342 78 perspective_correction \$1;
#X obj 344 49 tgl 15 0 empty empty empty 17 7 0 10 -262144 -1 -1 0
1;
#X msg 478 146 dst_point;
#X obj 482 -67 cnv 15 198 130 empty empty empty 20 12 0 14 -233017
-66577 0;
#X obj 500 -36 nbx 5 16 -20000 20000 0 1 empty empty x -10 7 0 12 -203904
-1 -1 -2 256;
#X obj 500 -16 nbx 5 16 -20000 20000 0 1 empty empty y -10 7 0 12 -203904
-1 -1 0 256;
#X obj 600 -36 nbx 5 16 -2000 20000 0 1 empty empty x -10 7 0 12 -203904
-1 -1 0 256;
#X obj 600 -16 nbx 5 16 -20000 20000 0 1 empty empty y -10 7 0 12 -203904
-1 -1 0 256;
#X obj 600 14 nbx 5 16 -20000 20000 0 1 empty empty x -10 7 0 12 -203904
-1 -1 0 256;
#X obj 600 34 nbx 5 16 -20000 20000 0 1 empty empty y -10 7 0 12 -203904
-1 -1 1 256;
#X obj 500 14 nbx 5 16 -20000 20000 0 1 empty empty x -10 7 0 12 -203904
-1 -1 -2 256;
#X obj 500 34 nbx 5 16 -20000 20000 0 1 empty empty y -10 7 0 12 -203904
-1 -1 1 256;
#X obj 545 241 pack f f f f f f f f;
#X obj 545 219 f;
#X obj 555 198 t b f;
#X obj 573 179 t b f;
#X obj 588 160 t b f;
#X obj 603 139 t b f;
#X obj 618 120 t b f;
#X obj 635 100 t b f;
#X obj 650 81 t b f;
#X obj 545 261 list prepend dst_point;
#X obj 623 295 print;
#X obj 545 280 list trim;
#X floatatom 417 492 5 0 0 0 - - -;
#X floatatom 324 494 5 0 0 0 - - -;
#X floatatom 435 378 5 0 0 0 - - -;
#X obj 324 473 tabread ilda_X;
#X obj 417 471 tabread ilda_Y;
#X obj 507 172 bng 15 250 50 0 empty empty empty 17 7 0 10 -262144
-1 -1;
#X msg 291 313 offset 0 0 0 \, scale 1 1 1;
#X obj 237 -27 tgl 15 0 empty empty empty 17 7 0 10 -262144 -1 -1 0
1;
#X obj 221 42 f;
#X obj 250 41 + 1;
#X obj 221 63 moses 1000;
#X msg 254 87 0;
#X obj 288 83 t b;
#X floatatom 195 96 5 0 0 0 - - -;
#X obj 84 523 tgl 15 0 empty empty empty 17 7 0 10 -262144 -1 -1 0
1;
#X obj 241 419 ../bin/tcpsend;
#X obj 241 346 spigot;
#X obj 272 320 tgl 15 0 empty empty empty 17 7 0 10 -262144 -1 -1 1
1;
#N canvas 1 365 284 378 make_header 0;
#X obj 41 20 inlet;
#X obj 41 324 outlet;
#X obj 41 244 list prepend;
#X msg 110 205 StartNewTrame;
#X obj 110 186 loadbang;
#X obj 68 60 list length;
#X obj 41 144 list prepend;
#X obj 41 284 list trim;
#X obj 41 264 list prepend send;
#X obj 41 40 t a a;
#X obj 69 81 ../abs/int2bytes;
#X obj 110 224 ../bin/any2bytes 128 -1;
#X connect 0 0 9 0;
#X connect 2 0 8 0;
#X connect 3 0 11 0;
#X connect 4 0 3 0;
#X connect 5 0 10 0;
#X connect 6 0 2 0;
#X connect 7 0 1 0;
#X connect 8 0 7 0;
#X connect 9 0 6 0;
#X connect 9 1 5 0;
#X connect 10 0 6 1;
#X connect 11 0 2 1;
#X restore 173 304 pd make_header;
#X msg 275 383 connect 127.0.0.1 3265;
#X msg 313 358 disconnect;
#N canvas 1 87 563 582 tables 0;
#X msg 189 267 settab square_X square_Y square_Z;
#X msg 189 247 settab grid_X grid_Y grid_Z;
#N canvas 528 82 605 661 make_square 0;
#X obj 268 79 table square_X 40;
#X obj 268 99 table square_Y 40;
#X obj 268 119 table square_Z 40;
#X obj 140 132 until;
#X obj 140 152 f;
#X obj 170 152 + 1;
#X obj 140 86 t b b;
#X msg 140 109 40;
#X msg 170 109 0;
#X obj 140 65 bng 15 250 50 0 empty empty empty 17 7 0 10 -262144 -1
-1;
#X obj 167 239 moses 10;
#X obj 293 517 tabwrite square_X;
#X obj 266 552 tabwrite square_Y;
#X obj 239 580 tabwrite square_Z;
#X obj 140 183 t f f;
#X obj 167 259 t b f;
#X msg 167 333 0;
#X obj 239 259 t b f;
#X msg 238 315 1;
#X obj 266 279 - 10;
#X obj 239 239 moses 20;
#X obj 299 259 t b f;
#X msg 299 333 1;
#X obj 299 239 moses 30;
#X obj 468 215 t f;
#X obj 468 358 t f;
#X obj 326 279 - 30;
#X obj 369 259 t b f;
#X msg 369 333 0;
#X obj 396 279 - 40;
#X obj 369 239 moses 40;
#X obj 140 44 loadbang;
#X obj 140 315 t f;
#X obj 129 339 % 10;
#X obj 91 406 != 0;
#X obj 126 369 t f f;
#X obj 111 430 &&;
#X obj 194 279 / 9;
#X obj 266 299 / 9;
#X obj 326 299 / -9;
#X obj 396 299 / -9;
#X obj 124 407 != 9;
#X obj 293 475 * 2;
#X obj 293 496 - 1;
#X obj 266 510 * 2;
#X obj 266 531 - 1;
#X connect 3 0 4 0;
#X connect 4 0 5 0;
#X connect 4 0 14 0;
#X connect 5 0 4 1;
#X connect 6 0 7 0;
#X connect 6 1 8 0;
#X connect 7 0 3 0;
#X connect 8 0 4 1;
#X connect 9 0 6 0;
#X connect 10 0 15 0;
#X connect 10 1 20 0;
#X connect 14 0 10 0;
#X connect 14 0 32 0;
#X connect 14 1 24 0;
#X connect 15 0 16 0;
#X connect 15 1 37 0;
#X connect 16 0 44 0;
#X connect 17 0 18 0;
#X connect 17 1 19 0;
#X connect 18 0 42 0;
#X connect 19 0 38 0;
#X connect 20 0 17 0;
#X connect 20 1 23 0;
#X connect 21 0 22 0;
#X connect 21 1 26 0;
#X connect 22 0 44 0;
#X connect 23 0 21 0;
#X connect 23 1 30 0;
#X connect 24 0 25 0;
#X connect 25 0 11 1;
#X connect 25 0 12 1;
#X connect 25 0 13 1;
#X connect 26 0 39 0;
#X connect 27 0 28 0;
#X connect 27 1 29 0;
#X connect 28 0 42 0;
#X connect 29 0 40 0;
#X connect 30 0 27 0;
#X connect 31 0 9 0;
#X connect 32 0 33 0;
#X connect 33 0 35 0;
#X connect 34 0 36 0;
#X connect 35 0 34 0;
#X connect 35 1 41 0;
#X connect 36 0 13 0;
#X connect 37 0 42 0;
#X connect 38 0 44 0;
#X connect 39 0 42 0;
#X connect 40 0 44 0;
#X connect 41 0 36 1;
#X connect 42 0 43 0;
#X connect 43 0 11 0;
#X connect 44 0 45 0;
#X connect 45 0 12 0;
#X restore 237 11 pd make_square;
#X msg 218 322 0;
#N canvas 523 161 605 524 make_grid 0;
#X obj 140 132 until;
#X obj 140 152 f;
#X obj 170 152 + 1;
#X obj 140 86 t b b;
#X msg 170 109 0;
#X obj 140 65 bng 15 250 50 0 empty empty empty 17 7 0 10 -262144 -1
-1;
#X obj 140 183 t f f;
#X obj 468 215 t f;
#X obj 468 358 t f;
#X obj 176 424 tabwrite grid_Y;
#X obj 203 389 tabwrite grid_X;
#X obj 140 452 tabwrite grid_Z;
#X obj 140 43 loadbang;
#X obj 279 96 table grid_X 200;
#X obj 279 116 table grid_Y 200;
#X obj 279 136 table grid_Z 200;
#X obj 187 239 moses 100;
#X obj 214 279 % 10;
#X obj 296 279 - 100;
#X obj 296 299 % 10;
#X obj 256 299 / 10;
#X obj 256 319 i;
#X obj 259 259 t f f;
#X obj 256 279 - 100;
#X obj 176 279 / 10;
#X obj 176 299 i;
#X msg 140 109 200;
#X obj 214 299 / 9;
#X obj 256 339 / 9;
#X obj 295 319 / 9;
#X obj 187 259 t f f;
#X obj 176 319 / 9;
#X obj 140 315 t f;
#X obj 90 336 % 10;
#X obj 52 403 != 0;
#X obj 87 366 t f f;
#X obj 72 427 &&;
#X obj 85 404 != 1;
#X obj 203 347 * 2;
#X obj 203 368 - 1;
#X obj 176 353 * 2;
#X obj 176 374 - 1;
#X connect 0 0 1 0;
#X connect 1 0 2 0;
#X connect 1 0 6 0;
#X connect 2 0 1 1;
#X connect 3 0 26 0;
#X connect 3 1 4 0;
#X connect 4 0 1 1;
#X connect 5 0 3 0;
#X connect 6 0 16 0;
#X connect 6 0 32 0;
#X connect 6 1 7 0;
#X connect 7 0 8 0;
#X connect 8 0 9 1;
#X connect 8 0 10 1;
#X connect 8 0 11 1;
#X connect 12 0 5 0;
#X connect 16 0 30 0;
#X connect 16 1 22 0;
#X connect 17 0 27 0;
#X connect 18 0 19 0;
#X connect 19 0 29 0;
#X connect 20 0 21 0;
#X connect 21 0 28 0;
#X connect 22 0 23 0;
#X connect 22 1 18 0;
#X connect 23 0 20 0;
#X connect 24 0 25 0;
#X connect 25 0 31 0;
#X connect 26 0 0 0;
#X connect 27 0 38 0;
#X connect 28 0 38 0;
#X connect 29 0 40 0;
#X connect 30 0 24 0;
#X connect 30 1 17 0;
#X connect 31 0 40 0;
#X connect 32 0 33 0;
#X connect 33 0 35 0;
#X connect 34 0 36 0;
#X connect 35 0 34 0;
#X connect 35 1 37 0;
#X connect 36 0 11 0;
#X connect 37 0 36 1;
#X connect 38 0 39 0;
#X connect 39 0 10 0;
#X connect 40 0 41 0;
#X connect 41 0 9 0;
#X restore 237 30 pd make_grid;
#N canvas 756 206 605 524 make_Z 0;
#X obj 140 132 until;
#X obj 140 152 f;
#X obj 170 152 + 1;
#X obj 140 86 t b b;
#X msg 170 109 0;
#X obj 140 65 bng 15 250 50 0 empty empty empty 17 7 0 10 -262144 -1
-1;
#X obj 140 183 t f f;
#X obj 468 215 t f;
#X obj 468 358 t f;
#X obj 140 43 loadbang;
#X obj 259 246 t f f;
#X obj 140 315 t f;
#X obj 279 96 table Z_X 1000;
#X obj 279 116 table Z_Y 1000;
#X obj 279 136 table Z_Z 1000;
#X msg 140 109 1000;
#X obj 214 412 tabwrite Z_X;
#X obj 187 436 tabwrite Z_Y;
#X obj 140 482 tabwrite Z_Z;
#X obj 187 219 moses 333;
#X obj 214 290 / 332;
#X obj 187 259 t b f;
#X msg 187 312 0;
#X obj 299 279 - 333;
#X obj 259 279 - 333;
#X obj 299 299 / 332;
#X obj 259 219 moses 666;
#X obj 259 319 + 1;
#X obj 259 299 / -332;
#X obj 380 297 / 332;
#X obj 380 277 - 666;
#X obj 340 244 t b f;
#X msg 340 300 1;
#X obj 90 336 % 333;
#X obj 87 366 < 332;
#X obj 187 397 * 2;
#X obj 187 416 - 1;
#X obj 214 367 * 2;
#X obj 214 386 - 1;
#X connect 0 0 1 0;
#X connect 1 0 2 0;
#X connect 1 0 6 0;
#X connect 2 0 1 1;
#X connect 3 0 15 0;
#X connect 3 1 4 0;
#X connect 4 0 1 1;
#X connect 5 0 3 0;
#X connect 6 0 11 0;
#X connect 6 0 19 0;
#X connect 6 1 7 0;
#X connect 7 0 8 0;
#X connect 8 0 16 1;
#X connect 8 0 17 1;
#X connect 8 0 18 1;
#X connect 9 0 5 0;
#X connect 10 0 24 0;
#X connect 10 1 23 0;
#X connect 11 0 33 0;
#X connect 15 0 0 0;
#X connect 19 0 21 0;
#X connect 19 1 26 0;
#X connect 20 0 37 0;
#X connect 21 0 22 0;
#X connect 21 1 20 0;
#X connect 22 0 35 0;
#X connect 23 0 25 0;
#X connect 24 0 28 0;
#X connect 25 0 35 0;
#X connect 26 0 10 0;
#X connect 26 1 31 0;
#X connect 27 0 37 0;
#X connect 28 0 27 0;
#X connect 29 0 37 0;
#X connect 30 0 29 0;
#X connect 31 0 32 0;
#X connect 31 1 30 0;
#X connect 32 0 35 0;
#X connect 33 0 34 0;
#X connect 34 0 18 0;
#X connect 35 0 36 0;
#X connect 36 0 17 0;
#X connect 37 0 38 0;
#X connect 38 0 16 0;
#X restore 237 49 pd make_Z;
#N canvas 509 196 605 524 make_X 0;
#X obj 140 132 until;
#X obj 140 152 f;
#X obj 170 152 + 1;
#X obj 140 86 t b b;
#X msg 170 109 0;
#X obj 140 66 bng 15 250 50 0 empty empty empty 17 7 0 10 -262144 -1
-1;
#X obj 140 183 t f f;
#X obj 468 215 t f;
#X obj 468 358 t f;
#X obj 140 43 loadbang;
#X obj 90 304 t f;
#X msg 140 109 1000;
#X obj 279 96 table X_X 1000;
#X obj 279 116 table X_Y 1000;
#X obj 279 136 table X_Z 1000;
#X obj 208 389 tabwrite X_X;
#X obj 176 424 tabwrite X_Y;
#X obj 140 452 tabwrite X_Z;
#X obj 90 336 % 500;
#X obj 90 379 < 498;
#X obj 187 219 moses 500;
#X obj 176 279 / 499;
#X obj 238 239 - 500;
#X obj 238 263 / -499;
#X obj 238 300 + 1;
#X obj 283 236 - 500;
#X obj 283 260 / 499;
#X obj 176 333 * 2;
#X obj 176 352 - 1;
#X obj 208 351 * 2;
#X obj 208 370 - 1;
#X connect 0 0 1 0;
#X connect 1 0 2 0;
#X connect 1 0 6 0;
#X connect 2 0 1 1;
#X connect 3 0 11 0;
#X connect 3 1 4 0;
#X connect 4 0 1 1;
#X connect 5 0 3 0;
#X connect 6 0 10 0;
#X connect 6 0 20 0;
#X connect 6 1 7 0;
#X connect 7 0 8 0;
#X connect 8 0 15 1;
#X connect 8 0 16 1;
#X connect 8 0 17 1;
#X connect 9 0 5 0;
#X connect 10 0 18 0;
#X connect 11 0 0 0;
#X connect 18 0 19 0;
#X connect 19 0 17 0;
#X connect 20 0 21 0;
#X connect 20 1 22 0;
#X connect 20 1 25 0;
#X connect 21 0 27 0;
#X connect 21 0 29 0;
#X connect 22 0 23 0;
#X connect 23 0 24 0;
#X connect 24 0 27 0;
#X connect 25 0 26 0;
#X connect 26 0 29 0;
#X connect 27 0 28 0;
#X connect 28 0 16 0;
#X connect 29 0 30 0;
#X connect 30 0 15 0;
#X restore 237 68 pd make_X;
#X msg 190 218 settab Z_X Z_Y Z_Z;
#X msg 191 200 settab X_X X_Y X_Z;
#X obj 127 51 table void_Z 1000;
#X obj 127 31 table void_Y 1000;
#X obj 127 11 table void_X 1000;
#X msg 190 179 settab void_X void_Y void_Z;
#N canvas 746 131 605 524 make_line 0;
#X obj 140 162 until;
#X obj 140 182 f;
#X obj 170 182 + 1;
#X obj 140 86 t b b;
#X msg 170 109 0;
#X obj 140 66 bng 15 250 50 0 empty empty empty 17 7 0 10 -262144 -1
-1;
#X obj 140 213 t f f;
#X obj 468 285 t f;
#X obj 468 428 t f;
#X obj 140 43 loadbang;
#X obj 90 374 t f;
#X obj 90 406 % 500;
#X obj 90 449 < 498;
#X obj 176 403 * 2;
#X obj 176 422 - 1;
#X obj 208 421 * 2;
#X obj 208 440 - 1;
#X obj 208 459 tabwrite line_X;
#X obj 176 494 tabwrite line_Y;
#X obj 160 522 tabwrite line_Z;
#X obj 168 254 t b;
#X obj 168 307 spigot 1;
#X obj 227 308 spigot 1;
#X obj 178 330 spigot;
#X obj 237 331 spigot;
#X obj 316 218 tgl 15 0 empty empty empty 17 7 0 10 -262144 -1 -1 0
1;
#X obj 316 237 t b f;
#X obj 342 266 == 0;
#X msg 168 275 0.5;
#X obj 235 258 / 9;
#X obj 226 206 - 1;
#X obj 140 130 t f f;
#X obj 139 106 i 10;
#X floatatom 47 70 5 0 0 0 - - -;
#X obj 280 96 table line_X 100;
#X obj 279 116 table line_Y 100;
#X obj 279 136 table line_Z 100;
#X obj 427 187 osc~ 440;
#X obj 446 221 bng 15 250 50 0 empty empty empty 17 7 0 10 -262144
-1 -1;
#X obj 427 249 tabwrite~ line_Y;
#X connect 0 0 1 0;
#X connect 1 0 2 0;
#X connect 1 0 6 0;
#X connect 2 0 1 1;
#X connect 3 0 32 0;
#X connect 3 1 4 0;
#X connect 4 0 1 1;
#X connect 5 0 3 0;
#X connect 6 0 10 0;
#X connect 6 0 20 0;
#X connect 6 0 29 0;
#X connect 6 1 7 0;
#X connect 7 0 8 0;
#X connect 8 0 17 1;
#X connect 8 0 18 1;
#X connect 8 0 19 1;
#X connect 9 0 5 0;
#X connect 10 0 11 0;
#X connect 11 0 12 0;
#X connect 12 0 19 0;
#X connect 13 0 14 0;
#X connect 14 0 18 0;
#X connect 15 0 16 0;
#X connect 16 0 17 0;
#X connect 20 0 28 0;
#X connect 21 0 13 0;
#X connect 22 0 15 0;
#X connect 23 0 15 0;
#X connect 24 0 13 0;
#X connect 25 0 26 0;
#X connect 26 0 5 0;
#X connect 26 1 27 0;
#X connect 26 1 24 1;
#X connect 26 1 23 1;
#X connect 27 0 22 1;
#X connect 27 0 21 1;
#X connect 28 0 21 0;
#X connect 28 0 23 0;
#X connect 29 0 22 0;
#X connect 29 0 24 0;
#X connect 30 0 29 1;
#X connect 31 0 0 0;
#X connect 31 1 30 0;
#X connect 32 0 31 0;
#X connect 33 0 32 1;
#X connect 37 0 39 0;
#X connect 38 0 39 0;
#X restore 237 108 pd make_line;
#X obj 179 299 t a b b;
#X msg 199 346 1000;
#X msg 191 160 settab line_X line_Y line_Z;
#N canvas 742 140 605 524 make_circle 0;
#X obj 140 162 until;
#X obj 140 182 f;
#X obj 170 182 + 1;
#X obj 140 86 t b b;
#X msg 190 105 0;
#X obj 140 66 bng 15 250 50 0 empty empty empty 17 7 0 10 -262144 -1
-1;
#X obj 140 213 t f f;
#X obj 468 285 t f;
#X obj 468 428 t f;
#X obj 140 43 loadbang;
#X obj 90 374 t f;
#X obj 90 406 % 500;
#X obj 90 449 < 498;
#X obj 235 258 / 9;
#X obj 231 205 - 1;
#X obj 140 130 t f f;
#X floatatom 47 70 5 0 0 0 - - -;
#X obj 427 187 osc~ 440;
#X obj 446 221 bng 15 250 50 0 empty empty empty 17 7 0 10 -262144
-1 -1;
#X obj 427 249 tabwrite~ line_Y;
#X obj 280 96 table circle_X 100;
#X obj 279 116 table circle_Y 100;
#X obj 279 136 table circle_Z 100;
#X obj 208 459 tabwrite circle_X;
#X obj 177 494 tabwrite circle_Y;
#X obj 160 522 tabwrite circle_Z;
#X obj 133 369 t b;
#X msg 136 405 1;
#X obj 235 314 sin;
#X obj 235 281 * 6.28319;
#X obj 304 316 cos;
#X obj 140 109 i 100;
#X obj 45 88 t b f;
#X obj 62 137 outlet;
#X connect 0 0 1 0;
#X connect 1 0 2 0;
#X connect 1 0 6 0;
#X connect 2 0 1 1;
#X connect 3 0 31 0;
#X connect 3 1 4 0;
#X connect 4 0 1 1;
#X connect 5 0 3 0;
#X connect 6 0 13 0;
#X connect 6 0 26 0;
#X connect 6 1 7 0;
#X connect 7 0 8 0;
#X connect 8 0 23 1;
#X connect 8 0 24 1;
#X connect 8 0 25 1;
#X connect 9 0 5 0;
#X connect 10 0 11 0;
#X connect 11 0 12 0;
#X connect 12 0 25 0;
#X connect 13 0 29 0;
#X connect 14 0 13 1;
#X connect 15 0 0 0;
#X connect 15 1 14 0;
#X connect 16 0 32 0;
#X connect 17 0 19 0;
#X connect 18 0 19 0;
#X connect 26 0 27 0;
#X connect 27 0 25 0;
#X connect 28 0 24 0;
#X connect 29 0 28 0;
#X connect 29 0 30 0;
#X connect 30 0 23 0;
#X connect 31 0 15 0;
#X connect 32 0 3 0;
#X connect 32 1 31 1;
#X connect 32 1 33 0;
#X restore 237 128 pd make_circle;
#X msg 240 292 settab circle_X circle_Y circle_Z;
#X msg 252 321 settab sound_X sound_Y sound_Z;
#X obj 177 402 outlet;
#X connect 0 0 14 0;
#X connect 1 0 14 0;
#X connect 7 0 14 0;
#X connect 8 0 14 0;
#X connect 12 0 14 0;
#X connect 14 0 20 0;
#X connect 14 1 15 0;
#X connect 14 2 3 0;
#X connect 16 0 14 0;
#X connect 18 0 14 0;
#X connect 19 0 14 0;
#X restore 373 189 pd tables;
#X obj 229 8 metro 100;
#X obj 184 494 print;
#X obj 120 -53 tgl 15 0 empty empty empty 17 7 0 10 -262144 -1 -1 0
1;
#X obj 112 -18 metro 100;
#X obj 115 26 i;
#X floatatom 138 4 5 0 0 0 - - -;
#X connect 0 0 32 0;
#X connect 1 0 32 0;
#X connect 2 0 32 0;
#X connect 3 0 32 0;
#X connect 7 0 32 0;
#X connect 9 0 2 0;
#X connect 10 0 32 0;
#X connect 11 0 12 0;
#X connect 13 0 32 0;
#X connect 14 0 15 0;
#X connect 15 0 23 0;
#X connect 15 1 16 0;
#X connect 15 1 22 0;
#X connect 15 2 17 1;
#X connect 15 2 21 0;
#X connect 16 0 17 0;
#X connect 17 0 18 0;
#X connect 19 0 14 0;
#X connect 19 0 81 0;
#X connect 24 0 26 0;
#X connect 24 0 27 0;
#X connect 25 0 24 0;
#X connect 29 0 28 0;
#X connect 29 1 28 1;
#X connect 30 0 29 0;
#X connect 31 0 32 0;
#X connect 32 0 11 0;
#X connect 32 0 19 0;
#X connect 33 0 35 0;
#X connect 34 0 35 0;
#X connect 35 0 32 0;
#X connect 36 0 32 0;
#X connect 37 0 32 0;
#X connect 38 0 32 0;
#X connect 39 0 32 0;
#X connect 40 0 39 0;
#X connect 43 0 52 0;
#X connect 44 0 53 0;
#X connect 45 0 54 0;
#X connect 46 0 55 0;
#X connect 47 0 56 0;
#X connect 48 0 57 0;
#X connect 49 0 58 0;
#X connect 50 0 59 0;
#X connect 51 0 60 0;
#X connect 52 0 51 0;
#X connect 53 0 52 0;
#X connect 53 1 51 1;
#X connect 54 0 52 0;
#X connect 54 1 51 2;
#X connect 55 0 52 0;
#X connect 55 1 51 3;
#X connect 56 0 52 0;
#X connect 56 1 51 4;
#X connect 57 0 52 0;
#X connect 57 1 51 5;
#X connect 58 0 52 0;
#X connect 58 1 51 6;
#X connect 59 0 52 0;
#X connect 59 1 51 7;
#X connect 60 0 61 0;
#X connect 60 0 62 0;
#X connect 62 0 32 0;
#X connect 65 0 24 0;
#X connect 65 0 66 0;
#X connect 65 0 67 0;
#X connect 66 0 64 0;
#X connect 67 0 63 0;
#X connect 68 0 52 0;
#X connect 69 0 32 0;
#X connect 70 0 85 0;
#X connect 71 0 72 0;
#X connect 71 0 73 0;
#X connect 72 0 71 1;
#X connect 73 0 32 0;
#X connect 73 0 76 0;
#X connect 73 1 75 0;
#X connect 74 0 71 1;
#X connect 75 0 74 0;
#X connect 78 0 80 0;
#X connect 79 0 78 0;
#X connect 79 0 86 0;
#X connect 80 0 79 1;
#X connect 81 0 79 0;
#X connect 82 0 78 0;
#X connect 83 0 78 0;
#X connect 84 0 32 0;
#X connect 85 0 71 0;
#X connect 87 0 88 0;
#X connect 88 0 89 0;
#X connect 89 0 32 0;
#X connect 90 0 89 1;
