#N canvas 567 249 1292 668 12;
#X msg 130 74 clear;
#X text 478 367 This outlet gives a bang when you hit the end of the
sequence.;
#X text 409 427 This outlet gives the bytes in sequence \, or bangs
if no more bytes.;
#X text 175 73 empty the buffer;
#X obj 338 433 print one;
#X obj 37 -13 openpanel;
#X obj 17 -48 bng 15 250 50 0 empty empty read_any_file_into_buffer
17 7 0 10 -4032 -258113 -1;
#X msg 37 32 read \$1;
#X obj 361 403 print info;
#X obj 410 373 print end;
#X text 440 397 This outlet gives a list of current parameters from
the info message.;
#X obj 384 381 tgl 15 0 empty empty empty 17 7 0 10 -258113 -257985
-1 0 1;
#X text 688 468 Martin Peach 2009/10/13;
#N canvas 504 317 494 344 META 0;
#X text 12 25 LICENSE GPL v2 or later;
#X text 12 5 KEYWORDS control filesystem;
#X text 12 45 DESCRIPTION read and write ILDA files;
#X text 12 175 comment;
#X text 12 105 AUTHOR Antoine Villeret - based on Martin Peach's [binfile]
;
#X text 12 65 INLET_0 float read clear settab write;
#X text 12 85 OUTLET_0 frame_info;
#X restore 812 497 pd META;
#X obj 338 353 readilda;
#X obj 181 -89 readilda;
#X text 246 -90 read and write ilda files;
#X floatatom 667 276 5 0 0 0 - - -;
#X obj 772 137 table drawX 32;
#X obj 772 157 table drawY 32;
#X obj 772 177 table drawR 32;
#X obj 772 197 table drawG 32;
#X obj 772 217 table drawB 32;
#X msg 338 216 settab x drawX y drawY r drawR g drawG b drawB;
#X obj 338 186 loadbang;
#X text 572 -72 The binfile object reads and writes ILDA files to and
from a buffer in memory. It outputs each frame one by one on demand
directly into tables. Intended to be used with makeildaframe and udp2ilda.
Part of the ILDA library.;
#X connect 0 0 14 0;
#X connect 5 0 7 0;
#X connect 6 0 5 0;
#X connect 7 0 14 0;
#X connect 14 0 4 0;
#X connect 17 0 14 0;
#X connect 23 0 14 0;
#X connect 24 0 23 0;
