#N canvas 354 577 1375 426 10;
#X text 94 36 this is an example help file;
#X obj 177 87 hsl 128 15 0 127 0 0 empty empty empty -2 -8 0 10 -262144
-1 -1 0 1;
#X msg 93 79 rats;
#N canvas 347 176 494 344 META 0;
#X text 12 105 HELP_PATCH_AUTHORS "pd meta" information added by Jonathan
Wilkes for Pd version 0.42.;
#X text 12 25 LICENSE GPL v2;
#X text 12 85 AUTHOR Hans Christoph Steiner;
#X text 12 5 KEYWORDS control;
#X text 12 45 DESCRIPTION example libdir object class;
#X text 12 65 INLET_0 float rats;
#X restore -7 14 pd META;
#X obj 120 196 udp2table;
#X msg 168 56 23 34 556;
#X obj 178 137 ../../bin/udpreceive 3265;
#X obj 248 252 unpack 0 0 0 0 0 0 0 0 0 0 0 0 0;
#X floatatom -41 314 5 0 0 3 offset_x - -;
#X floatatom 19 314 5 0 0 3 offset_y - -;
#X floatatom 79 314 5 0 0 3 scale_x - -;
#X floatatom 139 314 5 0 0 3 scale_y - -;
#X floatatom 499 314 5 0 0 3 intensity - -;
#X floatatom 664 306 5 0 0 3 angle_correction - -;
#X floatatom 767 306 5 0 0 3 end_line_correction - -;
#X floatatom 887 306 5 0 0 3 scan_freq - -;
#X obj 835 30 table drawX 32;
#X obj 835 50 table drawY 32;
#X msg 405 56 settab x foo;
#X msg 405 79 settab x drawX;
#X obj 835 70 table drawR 32;
#X obj 835 90 table drawG 32;
#X obj 835 110 table drawB 32;
#X msg 401 109 settab x drawX y drawY r drawR g drawG b drawB;
#X obj 319 185 bng 15 250 50 0 empty empty empty 17 7 0 10 -262144
-1 -1;
#X obj 568 80 loadbang;
#X obj 196 313 tgl 15 0 empty empty invert_x 0 25 0 10 -262144 -1 -1
0 1;
#X obj 256 313 tgl 15 0 empty empty invert_y 0 25 0 10 -262144 -1 -1
0 1;
#X obj 316 313 tgl 15 0 empty empty blanking_off 0 25 0 10 -262144
-1 -1 0 1;
#X obj 396 313 tgl 15 0 empty empty invert_blanking 0 25 0 10 -262144
-1 -1 0 1;
#X obj 569 314 vradio 15 1 0 4 empty empty mode 0 -8 0 10 -262144 -1
-1 0;
#X obj 120 218 route settings info;
#X connect 1 0 4 0;
#X connect 2 0 4 0;
#X connect 4 0 31 0;
#X connect 5 0 4 0;
#X connect 6 0 24 0;
#X connect 6 0 4 0;
#X connect 7 0 8 0;
#X connect 7 1 9 0;
#X connect 7 2 10 0;
#X connect 7 3 11 0;
#X connect 7 4 26 0;
#X connect 7 5 27 0;
#X connect 7 6 28 0;
#X connect 7 7 29 0;
#X connect 7 8 12 0;
#X connect 7 9 30 0;
#X connect 7 10 13 0;
#X connect 7 11 14 0;
#X connect 7 12 15 0;
#X connect 18 0 4 0;
#X connect 19 0 4 0;
#X connect 23 0 4 0;
#X connect 25 0 23 0;
#X connect 31 0 7 0;
