#N canvas 650 690 512 300 10;
#X obj 264 16 gemwin;
#X msg 264 -4 create \, 1;
#X msg 288 95 resize \$1;
#X obj 100 164 loadbang;
#X obj 60 78 t a b;
#X obj 60 -18 gemhead 1000;
#X obj 60 6 alpha 0;
#X msg 99 184 draw line;
#X obj 60 236 gemvertexbuffer;
#X floatatom 158 -11 5 0 0 0 - - -;
#X obj 60 33 scaleXYZ 3 3 1;
#X obj 264 -25 loadbang;
#X msg 171 183 draw point;
#X obj 288 72 r framesize;
#X msg 88 120 posX drawX \, posY drawY \, colorG drawR \, colorA drawR
;
#X connect 1 0 0 0;
#X connect 2 0 8 0;
#X connect 3 0 7 0;
#X connect 4 0 8 0;
#X connect 4 1 14 0;
#X connect 5 0 6 0;
#X connect 6 0 10 0;
#X connect 7 0 8 0;
#X connect 9 0 10 1;
#X connect 9 0 10 2;
#X connect 10 0 4 0;
#X connect 11 0 1 0;
#X connect 12 0 8 0;
#X connect 13 0 2 0;
#X connect 14 0 8 0;
